<?xml version="1.0" encoding="UTF-8"?>
<svg id="Layer_2" data-name="Layer 2" xmlns="http://www.w3.org/2000/svg" xmlns:xlink="http://www.w3.org/1999/xlink" viewBox="0 0 447.56 447.56">
  <defs>
    <style>
      .cls-1 {
        fill: url(#linear-gradient-2);
      }

      .cls-2 {
        fill: #ffe5e5;
      }

      .cls-3 {
        fill: #fff;
      }

      .cls-4 {
        fill: none;
      }

      .cls-5 {
        fill: url(#linear-gradient-3);
      }

      .cls-6 {
        fill: url(#linear-gradient);
      }

      .cls-7 {
        clip-path: url(#clippath);
      }
    </style>
    <clipPath id="clippath">
      <circle class="cls-4" cx="223.78" cy="223.78" r="223.78"/>
    </clipPath>
    <linearGradient id="linear-gradient" x1="-159.4" y1="223.78" x2="381.01" y2="223.78" gradientUnits="userSpaceOnUse">
      <stop offset="0" stop-color="#ef3739"/>
      <stop offset=".54" stop-color="#ef3739"/>
      <stop offset="1" stop-color="#ff8c8b"/>
    </linearGradient>
    <linearGradient id="linear-gradient-2" x1="313.12" y1="478.86" x2="245.93" y2="546.05" gradientTransform="translate(0 574.41) scale(1 -1)" gradientUnits="userSpaceOnUse">
      <stop offset="0" stop-color="#34344f"/>
      <stop offset=".26" stop-color="#3b3b57"/>
      <stop offset=".66" stop-color="#50506d"/>
      <stop offset="1" stop-color="#666684"/>
    </linearGradient>
    <linearGradient id="linear-gradient-3" x1="267.62" y1="322.99" x2="167.49" y2="423.12" gradientTransform="translate(0 574.41) scale(1 -1)" gradientUnits="userSpaceOnUse">
      <stop offset="0" stop-color="#ffd2d2"/>
      <stop offset=".57" stop-color="#fff"/>
      <stop offset="1" stop-color="#fff"/>
    </linearGradient>
  </defs>
  <g id="Layer_1-2" data-name="Layer 1">
    <circle class="cls-2" cx="223.78" cy="223.78" r="223.78"/>
    <g class="cls-7">
      <g>
        <path class="cls-6" d="M-132.16,346.07V91.91c0-4.27-4.1-7.33-8.19-6.13-4.93,1.45-9.82,2.98-14.58,4.48-2.66.84-4.47,3.3-4.47,6.09v318.52c0,4.16,3.91,7.2,7.94,6.19,60.69-15.26,124.21-13.98,184.02,3.48,6.74,1.97,11.27-6.8,5.74-11.15-44.79-35.23-100.34-54.71-157.93-54.79-6.86-.14-12.38-5.67-12.53-12.53ZM-106.58,18.8l-.78,310.08c0,3.34,2.56,6.14,5.89,6.38,72.37,5.24,139.95,37.69,189.24,90.58,3.95,4.24,11.04,1.43,11.04-4.36V132.33c0-1.3-.39-2.57-1.13-3.64C52.16,62.79-20.02,20.33-99.56,12.45c-3.75-.37-7,2.58-7.01,6.35ZM361.9,86.11c-4.08-1.14-8.13,1.92-8.13,6.15v254.08c-.14,6.86-5.67,12.38-12.53,12.53-68.12.06-133.37,27.44-181.14,76v.27c67.87-26.73,142.32-31.6,212.98-14.05,4.03,1,7.92-2.04,7.92-6.19V96.78c0-2.74-1.75-5.18-4.35-6.06-4.81-1.62-9.71-3.2-14.76-4.61ZM267.29,48.18c-16.19,1.48-9.4-11.44-25.21-15.96-22.97,10.58-81.47,43.55-117.64,96.49-.73,1.06-1.11,2.33-1.11,3.61v289.17c0,5.79,7.09,8.6,11.04,4.36,49.24-52.83,116.71-85.27,188.99-90.57,3.32-.24,5.89-3.03,5.89-6.36l-.03-249.67-47.08-20.3c0-3.76-11.12-11.11-14.86-10.76Z"/>
        <path class="cls-1" d="M329.23,79.24c-1.42,2.33-4.89,3.44-8.12,3.44-13.77,0-27.53-.4-41.22-1.18h-.12c-8.16-.51-16.17-2.69-22.58-6.13s-10.46-7.77-11.4-12.17c0-.02,0-.04,0-.06-1.82-9.15-4.14-21.73-3.71-30.93,8.84.14,17.38,1.74,24.47,4.58,24.77,9.94,42.65,20.78,54.97,29.82,4.99,3.64,7.7,8.03,7.73,12.55l-.03.08Z"/>
        <path class="cls-5" d="M172.6,261.21c-5.3-.01-10.37-2.13-14.11-5.87-7.78-7.79-7.78-20.41.01-28.2,1.25-1.25,2.65-2.32,4.18-3.2,13.65-7.8,27.89-14.54,42.58-20.14.89-1.68,1.77-3.4,2.65-5.17,5.46-10.9,10.04-22.23,13.7-33.86-7.43-11.67-12.98-24.43-16.44-37.83-2.6-10.41,3.74-20.95,14.14-23.54,6.76-1.69,13.91.38,18.73,5.42,3.88,4.06,5.83,9.61,5.33,15.21-1.18,13.06-3.57,25.98-7.12,38.6,6.78,9.66,14.73,18.44,23.68,26.13,9.47-1.64,19.03-2.74,28.62-3.28,10.07-.53,18.66,7.21,19.19,17.28.53,10.07-7.21,18.66-17.28,19.19-3.49.18-6.96-.64-10-2.38-8.51-4.87-16.63-10.39-24.29-16.51-14.09,2.77-27.95,6.62-41.45,11.51-7.7,13.89-16.64,27.07-26.7,39.37-3.57,4.34-8.8,6.98-14.42,7.26-.35.02-.67.02-1,.02h0ZM193.98,222.99c-8.05,3.64-16.3,7.82-24.68,12.59-1.76,1-2.95,2.77-3.21,4.77-.47,3.59,2.05,6.88,5.64,7.35,2.24.29,4.47-.58,5.91-2.32,5.86-7.16,11.31-14.63,16.34-22.4h0ZM274.66,200.13c3.89,2.67,8.03,5.29,12.45,7.83,1.28.74,2.83.84,4.2.27,2.49-1.02,3.69-3.86,2.67-6.36-.18-.43-.41-.83-.7-1.2-.96-1.22-2.47-1.9-4.02-1.8-4.16.2-9.05.6-14.6,1.26ZM231.23,178.32c-2.43,6.71-5.09,13.18-7.9,19.3,7.12-2.21,13.93-4.03,20.38-5.52-4.43-4.35-8.6-8.97-12.49-13.82v.04ZM223.73,116.28c-1.82.07-3.51.97-4.59,2.43-1.09,1.44-1.46,3.29-1,5.04,1.99,7.73,4.78,15.24,8.33,22.39,1.64-7.69,2.82-15.48,3.52-23.31.17-1.75-.45-3.49-1.68-4.75-1.19-1.27-2.88-1.94-4.62-1.85l.03.05Z"/>
        <g>
          <path class="cls-3" d="M248.28,243.17c1.69,0,3.12.25,4.3.74,1.18.49,2.15,1.14,2.89,1.95s1.28,1.72,1.62,2.76c.34,1.03.51,2.1.51,3.21s-.17,2.15-.51,3.19c-.34,1.05-.88,1.97-1.62,2.78-.74.81-1.71,1.45-2.89,1.94-1.18.49-2.62.74-4.3.74h-6.23v9.67h-5.93v-26.96h12.16ZM246.66,255.86c.68,0,1.33-.05,1.96-.15.63-.1,1.18-.3,1.66-.59.48-.29.86-.7,1.15-1.23.29-.53.43-1.22.43-2.08s-.14-1.55-.43-2.08c-.29-.53-.67-.94-1.15-1.23-.48-.29-1.03-.48-1.66-.59-.63-.1-1.28-.15-1.96-.15h-4.61v8.08h4.61Z"/>
          <path class="cls-3" d="M272.94,243.17c1.74,0,3.35.28,4.85.83,1.5.55,2.79,1.39,3.89,2.49,1.1,1.11,1.95,2.49,2.57,4.15.62,1.66.93,3.61.93,5.85,0,1.96-.25,3.78-.75,5.44-.5,1.66-1.27,3.1-2.28,4.31-1.02,1.21-2.29,2.16-3.81,2.85-1.52.69-3.32,1.04-5.38,1.04h-11.63v-26.96h11.63ZM272.53,265.15c.86,0,1.69-.14,2.49-.42.81-.28,1.52-.74,2.15-1.38.63-.64,1.13-1.48,1.51-2.51.38-1.03.57-2.29.57-3.78,0-1.36-.13-2.59-.4-3.68-.26-1.1-.7-2.03-1.3-2.81-.6-.78-1.4-1.38-2.4-1.79-.99-.42-2.22-.62-3.68-.62h-4.23v16.99h5.29Z"/>
          <path class="cls-3" d="M308.25,243.17v4.98h-13.03v6.23h11.29v4.61h-11.29v11.14h-5.93v-26.96h18.96Z"/>
        </g>
      </g>
    </g>
  </g>
</svg>